<svg xmlns="http://www.w3.org/2000/svg" viewBox="0 0 120 120">
  <path d="M45 54C25 35 14 29 4 29c1 22 15 38 39 42M75 54c20-19 31-25 41-25-1 22-15 38-39 42" fill="#E5EDF1" stroke="#8AA7B5" stroke-width="3" stroke-linejoin="round"/>
  <path d="M9 39c11 2 23 11 33 22M111 39c-11 2-23 11-33 22" fill="none" stroke="#B5CAD2" stroke-width="3"/>
  <circle cx="60" cy="64" r="26" fill="#F4C85F" stroke="#BA8B2E" stroke-width="4"/>
  <circle cx="60" cy="64" r="17" fill="none" stroke="#FFF0AE" stroke-width="3"/>
  <path d="m60 47 4 12 12 5-12 4-4 13-4-13-12-4 12-5 4-12Z" fill="#DDA63A"/>
</svg>
